<?xml version="1.0" encoding="UTF-8" standalone="no"?>
<svg
   xmlns:dc="http://purl.org/dc/elements/1.1/"
   xmlns:cc="http://creativecommons.org/ns#"
   xmlns:rdf="http://www.w3.org/1999/02/22-rdf-syntax-ns#"
   xmlns:svg="http://www.w3.org/2000/svg"
   xmlns="http://www.w3.org/2000/svg"
   xmlns:sodipodi="http://sodipodi.sourceforge.net/DTD/sodipodi-0.dtd"
   xmlns:inkscape="http://www.inkscape.org/namespaces/inkscape"
   viewBox="0 0 80.000002 79.999996"
   version="1.1"
   id="svg108"
   sodipodi:docname="logo-new.svg"
   width="80"
   height="80"
   inkscape:version="1.0.1 (0767f8302a, 2020-10-17)">
  <metadata
     id="metadata112">
    <rdf:RDF>
      <cc:Work
         rdf:about="">
        <dc:format>image/svg+xml</dc:format>
        <dc:type
           rdf:resource="http://purl.org/dc/dcmitype/StillImage" />
        <dc:title>logo-new</dc:title>
      </cc:Work>
    </rdf:RDF>
  </metadata>
  <sodipodi:namedview
     pagecolor="#ffffff"
     bordercolor="#666666"
     borderopacity="1"
     objecttolerance="10"
     gridtolerance="10"
     guidetolerance="10"
     inkscape:pageopacity="0"
     inkscape:pageshadow="2"
     inkscape:window-width="1855"
     inkscape:window-height="1056"
     id="namedview110"
     showgrid="false"
     inkscape:pagecheckerboard="true"
     fit-margin-top="0"
     fit-margin-left="0"
     fit-margin-right="0"
     fit-margin-bottom="0"
     inkscape:zoom="6.3296835"
     inkscape:cx="19.938258"
     inkscape:cy="39.053616"
     inkscape:window-x="65"
     inkscape:window-y="24"
     inkscape:window-maximized="1"
     inkscape:current-layer="Layer_1-2" />
  <defs
     id="defs82">
    <style
       id="style80">.cls-1{fill:#fff;}</style>
  </defs>
  <title
     id="title84">logo-new</title>
  <g
     id="Layer_1-2"
     data-name="Layer 1"
     transform="translate(0.08989898,0.08989898)">
    <g
       id="g265">
      <path
         class="cls-1"
         d="M 40,79.91 A 40,40 0 1 1 79.91,40 40,40 0 0 1 40,79.91 Z M 40,2.55 A 37.41,37.41 0 1 0 77.36,40 37.45,37.45 0 0 0 40,2.55 Z"
         id="path102" />
      <path
         class="cls-1"
         d="M 40.41,66 A 14.58,14.58 0 0 1 37,65.56 a 9,9 0 0 1 -6.06,-5 L 15.78,27.09 a 4.67,4.67 0 0 1 0,-3.77 4.78,4.78 0 0 1 2.82,-2.61 17.3,17.3 0 0 1 9.57,-0.28 8.47,8.47 0 0 1 5.38,4.76 C 36,31 40.11,41.6 43.13,49.33 l 2.12,5.41 a 1.93,1.93 0 0 0 3.56,0.08 L 61.74,26.27 a 2.28,2.28 0 0 0 0.06,-2 2.73,2.73 0 0 0 -1.95,-1.34 19.13,19.13 0 0 0 -6.09,-0.32 6,6 0 0 0 -5,3.63 l -5,12.67 -2.39,-0.91 5,-12.67 a 8.44,8.44 0 0 1 7.08,-5.22 21.49,21.49 0 0 1 6.89,0.36 5.29,5.29 0 0 1 3.69,2.68 4.77,4.77 0 0 1 0,4.2 l -12.9,28.52 a 4.48,4.48 0 0 1 -8.25,-0.19 c -0.6,-1.54 -1.32,-3.39 -2.12,-5.42 -3,-7.72 -7.14,-18.3 -9.6,-24.08 a 6,6 0 0 0 -3.69,-3.29 14.77,14.77 0 0 0 -8.08,0.23 2.19,2.19 0 0 0 -1.31,1.2 2.1,2.1 0 0 0 0,1.72 l 15.16,33.43 a 6.45,6.45 0 0 0 4.33,3.61 12,12 0 0 0 5.31,0.08 4.68,4.68 0 0 0 2.86,-1.73 1.273185,1.273185 0 1 1 2.14,1.38 7.09,7.09 0 0 1 -4.46,2.84 14.29,14.29 0 0 1 -3.01,0.35 z"
         id="path104" />
    </g>
  </g>
</svg>
